:FULLY-SPECIFIED
:FORCE-ALL-JOINTS-BE-3DOF
:DEGREES
272
root 8.3321 15.9173 -25.0445 17.0911 68.2045 15.6522
lfemur -25.4774 10.6737 -20.6883
ltibia 46.9804 -0 0
lfoot -15.2346 -19.6678 -0.158719
ltoes 43.6935 -0 0
rfemur -41.4528 -1.0151 12.0986
rtibia 61.4847 -0 0
rfoot 1.57145 -7.51409 1.81523
rtoes 17.5531 -0 0
lowerback 5.41393 -4.88324 -2.58731
upperback 2.10517 -6.5877 -1.22186
thorax -0.686552 -3.2494 0.584577
lowerneck -5.60522 -10.4837 -4.12824
upperneck 1.50927 -13.8641 4.97688
head 2.19943 -6.8523 1.7482
lclavicle 1.24253e-013 1.47101e-014 0
lhumerus -47.0899 -37.6949 110.375
lradius 60.4527 -0 0
lwrist 19.7611 0 0
lhand 15.4409 15.4672 0.0767747
lfingers 7.12502 -0 0
lthumb 40.2403 40.4011 0.00203954
rclavicle 1.24253e-013 1.47101e-014 0
rhumerus -53.9369 2.35032 -89.4687
rradius 56.0118 -0 0
rwrist 22.9367 0 0
rhand -25.88 1.34442 -0.347326
rfingers 7.12502 -0 0
rthumb 0.661123 -28.5749 -0.331735
273
root 8.39852 15.9114 -25.0158 18.1886 69.2426 17.215
lfemur -24.8985 10.0941 -20.9919
ltibia 47.0129 -0 0
lfoot -15.1067 -20.4397 -0.144882
ltoes 43.7763 -0 0
rfemur -42.774 -1.12562 12.5596
rtibia 62.189 -0 0
rfoot 2.51247 -6.31888 1.65579
rtoes 16.2064 -0 0
lowerback 5.64241 -4.96308 -2.74936
upperback 2.25105 -6.70416 -1.41857
thorax -0.665741 -3.30865 0.490085
lowerneck -5.41076 -10.66 -4.2779
upperneck 1.46737 -14.1038 5.16266
head 2.18447 -6.97087 1.8261
lclavicle 1.24253e-013 1.47101e-014 0
lhumerus -46.7747 -37.8543 109.879
lradius 60.3803 -0 0
lwrist 19.8348 0 0
lhand 15.8706 15.5784 0.070093
lfingers 7.12502 -0 0
lthumb 40.6463 40.4043 0.00186207
rclavicle 1.24253e-013 1.47101e-014 0
rhumerus -54.6334 2.86091 -90.6637
rradius 56.1435 -0 0
rwrist 22.5513 0 0
rhand -26.2641 1.90697 -0.317063
rfingers 7.12502 -0 0
rthumb 0.290232 -28.0184 -0.302833
274
root 8.46494 15.9055 -24.987 19.4244 70.269 18.9146
lfemur -24.3174 9.51756 -21.301
ltibia 47.0454 -0 0
lfoot -14.979 -21.2116 -0.129322
ltoes 43.859 -0 0
rfemur -44.0962 -1.22548 13.023
rtibia 62.8933 -0 0
rfoot 3.44988 -5.12656 1.4768
rtoes 14.8598 -0 0
lowerback 5.87114 -5.04228 -2.91174
upperback 2.39736 -6.82013 -1.61563
thorax -0.644831 -3.36788 0.395565
lowerneck -5.21572 -10.8357 -4.42826
upperneck 1.42462 -14.3433 5.34882
head 2.16934 -7.08943 1.90405
lclavicle 1.24253e-013 1.47101e-014 0
lhumerus -46.4571 -38.0115 109.382
lradius 60.308 -0 0
lwrist 19.9085 0 0
lhand 16.3003 15.6896 0.0625774
lfingers 7.12502 -0 0
lthumb 41.0523 40.4074 0.00166243
rclavicle 1.24253e-013 1.47101e-014 0
rhumerus -55.3408 3.35683 -91.8655
rradius 56.2753 -0 0
rwrist 22.166 0 0
rhand -26.6479 2.46931 -0.283032
rfingers 7.12502 -0 0
rthumb -0.0803598 -27.4622 -0.270331
275
root 8.53137 15.8995 -24.9582 20.8193 71.2816 20.7718
lfemur -23.7342 8.94413 -21.6155
ltibia 47.0778 -0 0
lfoot -14.8516 -21.9835 -0.112044
ltoes 43.9418 -0 0
rfemur -45.4192 -1.31462 13.4886
rtibia 63.5976 -0 0
rfoot 4.38328 -3.93741 1.27837
rtoes 13.5131 -0 0
lowerback 6.10012 -5.12083 -3.07446
upperback 2.54412 -6.9356 -1.81304
thorax -0.623822 -3.42707 0.301018
lowerneck -5.02009 -11.0109 -4.57931
upperneck 1.38102 -14.5827 5.53535
head 2.15405 -7.20796 1.98206
lclavicle 1.24253e-013 1.47101e-014 0
lhumerus -46.1371 -38.1665 108.881
lradius 60.2356 -0 0
lwrist 19.9822 0 0
lhand 16.73 15.8007 0.0542283
lfingers 7.12502 -0 0
lthumb 41.4584 40.4105 0.00144066
rclavicle 1.24253e-013 1.47101e-014 0
rhumerus -56.0589 3.8378 -93.0739
rradius 56.4071 -0 0
rwrist 21.7806 0 0
rhand -27.0314 3.0314 -0.245237
rfingers 7.12502 -0 0
rthumb -0.450618 -26.9061 -0.234234
276
root 8.59779 15.8936 -24.9294 22.3974 72.278 22.811
lfemur -23.1486 8.37389 -21.9354
ltibia 47.1103 -0 0
lfoot -14.7243 -22.7553 -0.0930512
ltoes 44.0246 -0 0
rfemur -46.7429 -1.39298 13.9562
rtibia 64.3019 -0 0
rfoot 5.3123 -2.75174 1.06064
rtoes 12.1664 -0 0
lowerback 6.32935 -5.19873 -3.23752
upperback 2.69131 -7.05056 -2.01079
thorax -0.602714 -3.48622 0.206444
lowerneck -4.82388 -11.1857 -4.73107
upperneck 1.33656 -14.822 5.72229
head 2.13859 -7.32647 2.06011
lclavicle 1.24253e-013 1.47101e-014 0
lhumerus -45.8147 -38.3193 108.379
lradius 60.1632 -0 0
lwrist 20.0559 0 0
lhand 17.1597 15.9117 0.0450463
lfingers 7.12502 -0 0
lthumb 41.8644 40.4136 0.00119674
rclavicle 1.24253e-013 1.47101e-014 0
rhumerus -56.7874 4.3035 -94.289
rradius 56.5389 -0 0
rwrist 21.3953 0 0
rhand -27.4144 3.59322 -0.203682
rfingers 7.12502 -0 0
rthumb -0.820507 -26.3503 -0.194545
277
root 8.66421 15.8876 -24.9006 24.1877 73.2553 25.061
lfemur -22.5607 7.80692 -22.2606
ltibia 47.1428 -0 0
lfoot -14.5974 -23.5271 -0.0723461
ltoes 44.1073 -0 0
rfemur -48.0672 -1.46052 14.4255
rtibia 65.0062 -0 0
rfoot 6.23656 -1.56984 0.823771
rtoes 10.8197 -0 0
lowerback 6.55883 -5.27598 -3.4009
upperback 2.83893 -7.16502 -2.20889
thorax -0.581507 -3.54534 0.111841
lowerneck -4.62708 -11.3599 -4.88352
upperneck 1.29125 -15.0612 5.90962
head 2.12296 -7.44496 2.13822
lclavicle 1.24253e-013 1.47101e-014 0
lhumerus -45.4899 -38.4698 107.875
lradius 60.0909 -0 0
lwrist 20.1296 0 0
lhand 17.5894 16.0227 0.0350318
lfingers 7.12502 -0 0
lthumb 42.2705 40.4168 0.000930706
rclavicle 1.24253e-013 1.47101e-014 0
rhumerus -57.5261 4.75364 -95.5107
rradius 56.6707 -0 0
rwrist 21.0099 0 0
rhand -27.797 4.15476 -0.158375
rfingers 7.12502 -0 0
rthumb -1.18999 -25.7948 -0.151272
